# 3ds Max Wavefront OBJ Exporter v0.97b - (c)2007 guruware
# File Created: 11.05.2014 13:11:45

#
# object Box001
#

v  -0.3332 -0.4440 -0.0000
v  -0.3332 -0.3330 -0.0000
v  -0.2222 -0.3330 -0.0000
v  -0.2222 -0.4440 -0.0000
v  -0.1111 -0.3330 -0.0000
v  -0.1111 -0.4440 -0.0000
v  0.1111 -0.4440 -0.0000
v  0.1111 -0.3330 -0.0000
v  0.2222 -0.3330 -0.0000
v  0.2222 -0.4440 -0.0000
v  0.3332 -0.3330 -0.0000
v  0.3332 -0.4440 -0.0000
v  -0.6665 -0.3330 -0.0000
v  -0.6665 -0.2220 -0.0000
v  -0.5554 -0.2220 -0.0000
v  -0.5554 -0.3330 -0.0000
v  -0.4443 -0.3330 -0.0000
v  -0.4443 -0.2220 -0.0000
v  -0.3332 -0.2220 -0.0000
v  0.3332 -0.2220 -0.0000
v  0.4443 -0.2220 -0.0000
v  0.4443 -0.3330 -0.0000
v  0.5554 -0.3330 -0.0000
v  0.5554 -0.2220 -0.0000
v  0.6665 -0.2220 -0.0000
v  0.6665 -0.3330 -0.0000
v  -0.6665 -0.1110 -0.0000
v  -0.5554 -0.1110 -0.0000
v  -0.4443 -0.1110 -0.0000
v  -0.3332 -0.1110 -0.0000
v  -0.2222 -0.1110 -0.0000
v  -0.2222 -0.2220 -0.0000
v  -0.1111 -0.1110 -0.0000
v  -0.1111 -0.2220 -0.0000
v  0.0000 -0.1110 -0.0000
v  0.0000 -0.2220 -0.0000
v  0.1111 -0.1110 -0.0000
v  0.1111 -0.2220 -0.0000
v  0.2222 -0.1110 -0.0000
v  0.2222 -0.2220 -0.0000
v  0.3332 -0.1110 -0.0000
v  0.4443 -0.1110 -0.0000
v  0.5554 -0.1110 -0.0000
v  0.6665 -0.1110 -0.0000
v  -0.6665 0.0000 -0.0000
v  -0.5554 0.0000 -0.0000
v  -0.4443 0.0000 -0.0000
v  -0.3332 0.0000 -0.0000
v  -0.2222 0.0000 -0.0000
v  -0.1111 0.0000 -0.0000
v  0.0000 0.0000 -0.0000
v  0.1111 0.0000 -0.0000
v  0.2222 0.0000 -0.0000
v  0.3332 0.0000 -0.0000
v  0.4443 0.0000 -0.0000
v  0.5554 0.0000 -0.0000
v  0.6665 0.0000 -0.0000
v  -0.5554 0.1110 0.0000
v  -0.4443 0.1110 0.0000
v  -0.3332 0.1110 0.0000
v  -0.2222 0.1110 0.0000
v  -0.1111 0.1110 0.0000
v  0.0000 0.1110 0.0000
v  0.1111 0.1110 0.0000
v  0.2222 0.1110 0.0000
v  0.3332 0.1110 0.0000
v  0.4443 0.1110 0.0000
v  0.5554 0.1110 0.0000
v  -0.4443 0.2220 0.0000
v  -0.3332 0.2220 0.0000
v  -0.2222 0.2220 0.0000
v  -0.1111 0.2220 0.0000
v  0.0000 0.2220 0.0000
v  0.1111 0.2220 0.0000
v  0.2222 0.2220 0.0000
v  0.3332 0.2220 0.0000
v  0.4443 0.2220 0.0000
v  -0.3332 0.3330 0.0000
v  -0.2222 0.3330 0.0000
v  0.2222 0.3330 0.0000
v  0.3332 0.3330 0.0000
v  -0.4443 0.3330 0.0000
v  -0.4443 0.4440 0.0000
v  -0.3332 0.4440 0.0000
v  0.3332 0.4440 0.0000
v  0.4443 0.4440 0.0000
v  0.4443 0.3330 0.0000
v  -0.3332 -0.4440 0.0983
v  -0.2222 -0.4440 0.0983
v  -0.2222 -0.3330 0.0983
v  -0.3332 -0.3330 0.0977
v  -0.1111 -0.4440 0.0983
v  -0.1111 -0.3330 0.0983
v  0.1111 -0.4440 0.0983
v  0.2222 -0.4440 0.0983
v  0.2222 -0.3330 0.0983
v  0.1111 -0.3330 0.0983
v  0.3332 -0.4440 0.0983
v  0.3332 -0.3330 0.0977
v  -0.6665 -0.3330 0.0983
v  -0.5554 -0.3330 0.0983
v  -0.5554 -0.2220 0.0983
v  -0.6665 -0.2220 0.0983
v  -0.4443 -0.3330 0.0983
v  -0.3332 -0.2220 0.0983
v  -0.4443 -0.2220 0.0983
v  0.4443 -0.3330 0.0983
v  0.4443 -0.2220 0.0983
v  0.3332 -0.2220 0.0983
v  0.5554 -0.3330 0.0983
v  0.6665 -0.3330 0.0983
v  0.6665 -0.2220 0.0983
v  0.5554 -0.2220 0.0983
v  -0.5554 -0.1110 0.0983
v  -0.6665 -0.1110 0.0983
v  -0.3332 -0.1110 0.1000
v  -0.4443 -0.1110 0.0983
v  -0.2222 -0.2220 0.0983
v  -0.2222 -0.1110 0.1000
v  -0.1111 -0.2220 0.0983
v  -0.1111 -0.1110 0.1000
v  0.0000 -0.2220 0.0983
v  0.0000 -0.1110 0.1000
v  0.1111 -0.2220 0.0983
v  0.1111 -0.1110 0.1000
v  0.2222 -0.2220 0.0983
v  0.2222 -0.1110 0.1000
v  0.3332 -0.1110 0.1000
v  0.4443 -0.1110 0.0983
v  0.6665 -0.1110 0.0983
v  0.5554 -0.1110 0.0983
v  -0.5554 -0.0000 0.0983
v  -0.6665 -0.0000 0.0983
v  -0.4443 -0.0000 0.1000
v  -0.3332 -0.0000 0.1023
v  -0.2222 -0.0000 0.1023
v  -0.1111 -0.0000 0.1000
v  0.0000 -0.0000 0.1000
v  0.1111 -0.0000 0.1023
v  0.2222 -0.0000 0.1023
v  0.3332 -0.0000 0.1000
v  0.4443 -0.0000 0.1000
v  0.5554 -0.0000 0.0983
v  0.6665 -0.0000 0.0983
v  -0.4443 0.1110 0.0983
v  -0.5554 0.1110 0.0983
v  -0.3332 0.1110 0.1023
v  -0.1111 0.1110 0.1000
v  -0.2222 0.1110 0.1023
v  0.0000 0.1110 0.1000
v  0.1111 0.1110 0.1023
v  0.3332 0.1110 0.1000
v  0.2222 0.1110 0.1023
v  0.4443 0.1110 0.0983
v  0.5554 0.1110 0.0983
v  -0.3332 0.2220 0.0983
v  -0.4443 0.2220 0.0983
v  -0.2222 0.2220 0.0983
v  -0.1111 0.2220 0.0983
v  0.0000 0.2220 0.0983
v  0.1111 0.2220 0.0983
v  0.2222 0.2220 0.0983
v  0.3332 0.2220 0.0983
v  0.4443 0.2220 0.0983
v  -0.2222 0.3330 0.0983
v  -0.3332 0.3330 0.0977
v  0.3332 0.3330 0.0977
v  0.2222 0.3330 0.0983
v  -0.4443 0.3330 0.0983
v  -0.3332 0.4440 0.0983
v  -0.4443 0.4440 0.0983
v  0.4443 0.3330 0.0983
v  0.4443 0.4440 0.0983
v  0.3332 0.4440 0.0983
# 174 vertices

vn 0.0000 0.0000 -1.0000
vn -0.0025 0.0025 1.0000
vn 0.0000 -0.0000 1.0000
vn -0.0013 0.0013 1.0000
vn -0.0000 -0.0000 1.0000
vn 0.0013 0.0013 1.0000
vn 0.0025 -0.0000 1.0000
vn 0.0000 0.0051 1.0000
vn 0.0025 -0.0025 1.0000
vn 0.0008 -0.0110 0.9999
vn -0.0038 -0.0038 1.0000
vn -0.0051 -0.0000 1.0000
vn -0.0013 -0.0013 1.0000
vn 0.0025 -0.0093 1.0000
vn -0.0025 -0.0025 1.0000
vn -0.0057 -0.0161 0.9999
vn -0.0111 -0.0111 0.9999
vn 0.0000 -0.0153 0.9999
vn 0.0026 -0.0154 0.9999
vn 0.0000 -0.0076 1.0000
vn -0.0026 -0.0102 0.9999
vn 0.0000 -0.0180 0.9998
vn 0.0057 -0.0095 0.9999
vn 0.0102 -0.0102 0.9999
vn -0.0076 0.0025 1.0000
vn -0.0180 -0.0000 0.9998
vn -0.0129 -0.0129 0.9998
vn 0.0138 -0.0138 0.9998
vn 0.0078 -0.0026 1.0000
vn -0.0104 -0.0000 0.9999
vn -0.0104 -0.0104 0.9999
vn 0.0097 -0.0007 1.0000
vn 0.0076 0.0000 1.0000
vn 0.0076 -0.0025 1.0000
vn -0.0205 0.0136 0.9997
vn -0.0214 0.0265 0.9994
vn 0.0104 0.0076 0.9999
vn 0.0104 0.0206 0.9997
vn -0.0078 0.0102 0.9999
vn -0.0138 0.0240 0.9996
vn 0.0161 0.0057 0.9999
vn 0.0076 0.0076 0.9999
vn -0.0069 0.0189 0.9998
vn 0.0000 0.0240 0.9997
vn 0.0052 0.0205 0.9998
vn 0.0000 0.0153 0.9999
vn -0.0052 0.0308 0.9995
vn 0.0008 0.0249 0.9997
vn 0.0035 0.0153 0.9999
vn 0.0051 -0.0000 1.0000
vn 0.0000 -0.0051 1.0000
vn 0.0000 -1.0000 -0.0000
vn -1.0000 0.0000 -0.0000
vn 0.0000 1.0000 0.0000
vn 1.0000 0.0000 -0.0000
# 55 vertex normals

g Box001
f 1//1 2//1 3//1 
f 3//1 4//1 1//1 
f 4//1 3//1 5//1 
f 5//1 6//1 4//1 
f 7//1 8//1 9//1 
f 9//1 10//1 7//1 
f 10//1 9//1 11//1 
f 11//1 12//1 10//1 
f 13//1 14//1 15//1 
f 15//1 16//1 13//1 
f 17//1 18//1 19//1 
f 19//1 2//1 17//1 
f 11//1 20//1 21//1 
f 21//1 22//1 11//1 
f 23//1 24//1 25//1 
f 25//1 26//1 23//1 
f 14//1 27//1 28//1 
f 28//1 15//1 14//1 
f 18//1 29//1 30//1 
f 30//1 19//1 18//1 
f 19//1 30//1 31//1 
f 31//1 32//1 19//1 
f 32//1 31//1 33//1 
f 33//1 34//1 32//1 
f 34//1 33//1 35//1 
f 35//1 36//1 34//1 
f 36//1 35//1 37//1 
f 37//1 38//1 36//1 
f 38//1 37//1 39//1 
f 39//1 40//1 38//1 
f 40//1 39//1 41//1 
f 41//1 20//1 40//1 
f 20//1 41//1 42//1 
f 42//1 21//1 20//1 
f 24//1 43//1 44//1 
f 44//1 25//1 24//1 
f 27//1 45//1 46//1 
f 46//1 28//1 27//1 
f 28//1 46//1 47//1 
f 47//1 29//1 28//1 
f 29//1 47//1 48//1 
f 48//1 30//1 29//1 
f 30//1 48//1 49//1 
f 49//1 31//1 30//1 
f 31//1 49//1 50//1 
f 50//1 33//1 31//1 
f 33//1 50//1 51//1 
f 51//1 35//1 33//1 
f 35//1 51//1 52//1 
f 52//1 37//1 35//1 
f 37//1 52//1 53//1 
f 53//1 39//1 37//1 
f 39//1 53//1 54//1 
f 54//1 41//1 39//1 
f 41//1 54//1 55//1 
f 55//1 42//1 41//1 
f 42//1 55//1 56//1 
f 56//1 43//1 42//1 
f 43//1 56//1 57//1 
f 57//1 44//1 43//1 
f 46//1 58//1 59//1 
f 59//1 47//1 46//1 
f 47//1 59//1 60//1 
f 60//1 48//1 47//1 
f 49//1 61//1 62//1 
f 62//1 50//1 49//1 
f 50//1 62//1 63//1 
f 63//1 51//1 50//1 
f 51//1 63//1 64//1 
f 64//1 52//1 51//1 
f 53//1 65//1 66//1 
f 66//1 54//1 53//1 
f 54//1 66//1 67//1 
f 67//1 55//1 54//1 
f 55//1 67//1 68//1 
f 68//1 56//1 55//1 
f 59//1 69//1 70//1 
f 70//1 60//1 59//1 
f 60//1 70//1 71//1 
f 71//1 61//1 60//1 
f 61//1 71//1 72//1 
f 72//1 62//1 61//1 
f 62//1 72//1 73//1 
f 73//1 63//1 62//1 
f 63//1 73//1 74//1 
f 74//1 64//1 63//1 
f 64//1 74//1 75//1 
f 75//1 65//1 64//1 
f 65//1 75//1 76//1 
f 76//1 66//1 65//1 
f 66//1 76//1 77//1 
f 77//1 67//1 66//1 
f 70//1 78//1 79//1 
f 79//1 71//1 70//1 
f 75//1 80//1 81//1 
f 81//1 76//1 75//1 
f 82//1 83//1 84//1 
f 84//1 78//1 82//1 
f 81//1 85//1 86//1 
f 86//1 87//1 81//1 
f 88//2 89//3 90//4 
f 90//4 91//5 88//2 
f 89//3 92//3 93//3 
f 93//3 90//4 89//3 
f 94//3 95//6 96//7 
f 96//7 97//3 94//3 
f 95//6 98//8 99//3 
f 99//3 96//7 95//6 
f 100//3 101//3 102//3 
f 102//3 103//3 100//3 
f 104//9 91//5 105//10 
f 105//10 106//11 104//9 
f 99//3 107//12 108//13 
f 108//13 109//14 99//3 
f 110//3 111//3 112//3 
f 112//3 113//3 110//3 
f 103//3 102//3 114//15 
f 114//15 115//3 103//3 
f 106//11 105//10 116//16 
f 116//16 117//17 106//11 
f 105//10 118//18 119//19 
f 119//19 116//16 105//10 
f 118//18 120//18 121//20 
f 121//20 119//19 118//18 
f 120//18 122//18 123//21 
f 123//21 121//20 120//18 
f 122//18 124//18 125//22 
f 125//22 123//21 122//18 
f 124//18 126//18 127//19 
f 127//19 125//22 124//18 
f 126//18 109//14 128//23 
f 128//23 127//19 126//18 
f 109//14 108//13 129//24 
f 129//24 128//23 109//14 
f 113//3 112//3 130//3 
f 130//3 131//3 113//3 
f 115//3 114//15 132//25 
f 132//25 133//3 115//3 
f 114//15 117//17 134//26 
f 134//26 132//25 114//15 
f 117//17 116//16 135//27 
f 135//27 134//26 117//17 
f 116//16 119//19 136//28 
f 136//28 135//27 116//16 
f 119//19 121//20 137//29 
f 137//29 136//28 119//19 
f 121//20 123//21 138//30 
f 138//30 137//29 121//20 
f 123//21 125//22 139//31 
f 139//31 138//30 123//21 
f 125//22 127//19 140//28 
f 140//28 139//31 125//22 
f 127//19 128//23 141//32 
f 141//32 140//28 127//19 
f 128//23 129//24 142//33 
f 142//33 141//32 128//23 
f 129//24 131//3 143//34 
f 143//34 142//33 129//24 
f 131//3 130//3 144//3 
f 144//3 143//34 131//3 
f 132//25 134//26 145//35 
f 145//35 146//3 132//25 
f 134//26 135//27 147//36 
f 147//36 145//35 134//26 
f 136//28 137//29 148//37 
f 148//37 149//38 136//28 
f 137//29 138//30 150//39 
f 150//39 148//37 137//29 
f 138//30 139//31 151//40 
f 151//40 150//39 138//30 
f 140//28 141//32 152//41 
f 152//41 153//38 140//28 
f 141//32 142//33 154//42 
f 154//42 152//41 141//32 
f 142//33 143//34 155//42 
f 155//42 154//42 142//33 
f 145//35 147//36 156//43 
f 156//43 157//3 145//35 
f 147//36 149//38 158//44 
f 158//44 156//43 147//36 
f 149//38 148//37 159//45 
f 159//45 158//44 149//38 
f 148//37 150//39 160//46 
f 160//46 159//45 148//37 
f 150//39 151//40 161//47 
f 161//47 160//46 150//39 
f 151//40 153//38 162//48 
f 162//48 161//47 151//40 
f 153//38 152//41 163//49 
f 163//49 162//48 153//38 
f 152//41 154//42 164//42 
f 164//42 163//49 152//41 
f 156//43 158//44 165//2 
f 165//2 166//3 156//43 
f 162//48 163//49 167//3 
f 167//3 168//50 162//48 
f 169//9 166//3 170//9 
f 170//9 171//3 169//9 
f 167//3 172//12 173//15 
f 173//15 174//51 167//3 
f 13//52 16//52 101//52 
f 101//52 100//52 13//52 
f 17//52 2//52 91//52 
f 91//52 104//52 17//52 
f 2//53 1//53 88//53 
f 88//53 91//53 2//53 
f 3//54 2//54 91//54 
f 91//54 90//54 3//54 
f 1//52 4//52 89//52 
f 89//52 88//52 1//52 
f 5//54 3//54 90//54 
f 90//54 93//54 5//54 
f 6//55 5//55 93//55 
f 93//55 92//55 6//55 
f 4//52 6//52 92//52 
f 92//52 89//52 4//52 
f 8//53 7//53 94//53 
f 94//53 97//53 8//53 
f 9//54 8//54 97//54 
f 97//54 96//54 9//54 
f 7//52 10//52 95//52 
f 95//52 94//52 7//52 
f 11//54 9//54 96//54 
f 96//54 99//54 11//54 
f 12//55 11//55 99//55 
f 99//55 98//55 12//55 
f 10//52 12//52 98//52 
f 98//52 95//52 10//52 
f 11//52 22//52 107//52 
f 107//52 99//52 11//52 
f 23//52 26//52 111//52 
f 111//52 110//52 23//52 
f 14//53 13//53 100//53 
f 100//53 103//53 14//53 
f 16//55 15//55 102//55 
f 102//55 101//55 16//55 
f 18//53 17//53 104//53 
f 104//53 106//53 18//53 
f 2//55 19//55 105//55 
f 105//55 91//55 2//55 
f 19//52 32//52 118//52 
f 118//52 105//52 19//52 
f 32//52 34//52 120//52 
f 120//52 118//52 32//52 
f 34//52 36//52 122//52 
f 122//52 120//52 34//52 
f 36//52 38//52 124//52 
f 124//52 122//52 36//52 
f 38//52 40//52 126//52 
f 126//52 124//52 38//52 
f 40//52 20//52 109//52 
f 109//52 126//52 40//52 
f 20//53 11//53 99//53 
f 99//53 109//53 20//53 
f 22//55 21//55 108//55 
f 108//55 107//55 22//55 
f 24//53 23//53 110//53 
f 110//53 113//53 24//53 
f 26//55 25//55 112//55 
f 112//55 111//55 26//55 
f 27//53 14//53 103//53 
f 103//53 115//53 27//53 
f 15//55 28//55 114//55 
f 114//55 102//55 15//55 
f 28//52 29//52 117//52 
f 117//52 114//52 28//52 
f 29//53 18//53 106//53 
f 106//53 117//53 29//53 
f 21//55 42//55 129//55 
f 129//55 108//55 21//55 
f 42//52 43//52 131//52 
f 131//52 129//52 42//52 
f 43//53 24//53 113//53 
f 113//53 131//53 43//53 
f 25//55 44//55 130//55 
f 130//55 112//55 25//55 
f 45//53 27//53 115//53 
f 115//53 133//53 45//53 
f 46//54 45//54 133//54 
f 133//54 132//54 46//54 
f 57//54 56//54 143//54 
f 143//54 144//54 57//54 
f 44//55 57//55 144//55 
f 144//55 130//55 44//55 
f 58//53 46//53 132//53 
f 132//53 146//53 58//53 
f 59//54 58//54 146//54 
f 146//54 145//54 59//54 
f 68//54 67//54 154//54 
f 154//54 155//54 68//54 
f 56//55 68//55 155//55 
f 155//55 143//55 56//55 
f 69//53 59//53 145//53 
f 145//53 157//53 69//53 
f 70//54 69//54 157//54 
f 157//54 156//54 70//54 
f 72//54 71//54 158//54 
f 158//54 159//54 72//54 
f 73//54 72//54 159//54 
f 159//54 160//54 73//54 
f 74//54 73//54 160//54 
f 160//54 161//54 74//54 
f 75//54 74//54 161//54 
f 161//54 162//54 75//54 
f 77//54 76//54 163//54 
f 163//54 164//54 77//54 
f 67//55 77//55 164//55 
f 164//55 154//55 67//55 
f 82//52 78//52 166//52 
f 166//52 169//52 82//52 
f 78//53 70//53 156//53 
f 156//53 166//53 78//53 
f 79//54 78//54 166//54 
f 166//54 165//54 79//54 
f 71//55 79//55 165//55 
f 165//55 158//55 71//55 
f 80//53 75//53 162//53 
f 162//53 168//53 80//53 
f 81//54 80//54 168//54 
f 168//54 167//54 81//54 
f 76//55 81//55 167//55 
f 167//55 163//55 76//55 
f 81//52 87//52 172//52 
f 172//52 167//52 81//52 
f 83//53 82//53 169//53 
f 169//53 171//53 83//53 
f 84//54 83//54 171//54 
f 171//54 170//54 84//54 
f 78//55 84//55 170//55 
f 170//55 166//55 78//55 
f 85//53 81//53 167//53 
f 167//53 174//53 85//53 
f 86//54 85//54 174//54 
f 174//54 173//54 86//54 
f 87//55 86//55 173//55 
f 173//55 172//55 87//55 
f 49//54 48//54 135//54 
f 135//54 136//54 49//54 
f 53//54 52//54 139//54 
f 139//54 140//54 53//54 
f 48//55 60//55 147//55 
f 147//55 135//55 48//55 
f 60//52 61//52 149//52 
f 149//52 147//52 60//52 
f 61//53 49//53 136//53 
f 136//53 149//53 61//53 
f 52//55 64//55 151//55 
f 151//55 139//55 52//55 
f 64//52 65//52 153//52 
f 153//52 151//52 64//52 
f 65//53 53//53 140//53 
f 140//53 153//53 65//53 
# 352 faces

