# 3ds Max Wavefront OBJ Exporter v0.97b - (c)2007 guruware
# File Created: 11.05.2014 13:06:01

#
# object Box001
#

v  -0.3156 -0.4207 -0.0000
v  -0.3156 -0.3156 -0.0000
v  -0.2104 -0.3156 -0.0000
v  -0.2104 -0.4207 -0.0000
v  0.2104 -0.4207 -0.0000
v  0.2104 -0.3156 -0.0000
v  0.3156 -0.3156 -0.0000
v  0.3156 -0.4207 -0.0000
v  -0.4207 -0.3156 -0.0000
v  -0.4207 -0.2104 -0.0000
v  -0.3156 -0.2104 -0.0000
v  0.3156 -0.2104 -0.0000
v  0.4207 -0.2104 -0.0000
v  0.4207 -0.3156 -0.0000
v  -0.3156 -0.1052 -0.0000
v  -0.2104 -0.1052 -0.0000
v  -0.2104 -0.2104 -0.0000
v  -0.1052 -0.2104 -0.0000
v  -0.1052 -0.1052 -0.0000
v  -0.0000 -0.1052 -0.0000
v  -0.0000 -0.2104 -0.0000
v  0.1052 -0.1052 -0.0000
v  0.1052 -0.2104 -0.0000
v  0.2104 -0.2104 -0.0000
v  0.2104 -0.1052 -0.0000
v  0.3156 -0.1052 -0.0000
v  -0.4207 -0.1052 -0.0000
v  -0.4207 -0.0000 -0.0000
v  -0.3156 -0.0000 -0.0000
v  -0.2104 -0.0000 -0.0000
v  -0.1052 -0.0000 -0.0000
v  -0.0000 -0.0000 -0.0000
v  0.1052 -0.0000 -0.0000
v  0.2104 -0.0000 -0.0000
v  0.3156 -0.0000 -0.0000
v  0.4207 -0.0000 -0.0000
v  0.4207 -0.1052 -0.0000
v  -0.4207 0.1052 0.0000
v  -0.3156 0.1052 0.0000
v  -0.2104 0.1052 0.0000
v  -0.1052 0.1052 0.0000
v  -0.0000 0.1052 0.0000
v  0.1052 0.1052 0.0000
v  0.2104 0.1052 0.0000
v  0.3156 0.1052 0.0000
v  0.4207 0.1052 0.0000
v  -0.3156 0.2104 0.0000
v  -0.2104 0.2104 0.0000
v  -0.1052 0.2104 0.0000
v  -0.0000 0.2104 0.0000
v  0.1052 0.2104 0.0000
v  0.2104 0.2104 0.0000
v  0.3156 0.2104 0.0000
v  -0.2104 0.3156 0.0000
v  -0.1052 0.3156 0.0000
v  -0.0000 0.3156 0.0000
v  0.1052 0.3156 0.0000
v  0.2104 0.3156 0.0000
v  -0.1052 0.4207 0.0000
v  -0.0000 0.4207 0.0000
v  0.1052 0.4207 0.0000
v  -0.3156 -0.4207 0.0978
v  -0.2104 -0.4207 0.0978
v  -0.2104 -0.3156 0.0978
v  -0.3156 -0.3156 0.0970
v  0.2104 -0.4207 0.0978
v  0.3156 -0.4207 0.0978
v  0.3156 -0.3156 0.0970
v  0.2104 -0.3156 0.0978
v  -0.4207 -0.3156 0.0978
v  -0.3156 -0.2104 0.0970
v  -0.4207 -0.2104 0.0978
v  0.4207 -0.3156 0.0978
v  0.4207 -0.2104 0.0978
v  0.3156 -0.2104 0.0970
v  -0.2104 -0.2104 0.0978
v  -0.2104 -0.1052 0.0978
v  -0.3156 -0.1052 0.0978
v  -0.1052 -0.2104 0.0978
v  -0.0000 -0.2104 0.0978
v  -0.0000 -0.1052 0.1000
v  -0.1052 -0.1052 0.0978
v  0.1052 -0.2104 0.0978
v  0.1052 -0.1052 0.0978
v  0.2104 -0.2104 0.0978
v  0.3156 -0.1052 0.0978
v  0.2104 -0.1052 0.0978
v  -0.4207 -0.1052 0.0978
v  -0.3156 -0.0000 0.1000
v  -0.4207 -0.0000 0.1000
v  -0.2104 -0.0000 0.1004
v  -0.1052 -0.0000 0.1004
v  -0.0000 -0.0000 0.1000
v  0.1052 -0.0000 0.1004
v  0.2104 -0.0000 0.1004
v  0.3156 -0.0000 0.1000
v  0.4207 -0.1052 0.0978
v  0.4207 -0.0000 0.1000
v  -0.3156 0.1052 0.0978
v  -0.4207 0.1052 0.0978
v  -0.2104 0.1052 0.1004
v  -0.0000 0.1052 0.1000
v  -0.1052 0.1052 0.1004
v  0.1052 0.1052 0.1004
v  0.3156 0.1052 0.0978
v  0.2104 0.1052 0.1004
v  0.4207 0.1052 0.0978
v  -0.2104 0.2104 0.0978
v  -0.3156 0.2104 0.0978
v  -0.1052 0.2104 0.1000
v  -0.0000 0.2104 0.1000
v  0.1052 0.2104 0.1000
v  0.2104 0.2104 0.0978
v  0.3156 0.2104 0.0978
v  -0.1052 0.3156 0.0978
v  -0.2104 0.3156 0.0978
v  -0.0000 0.3156 0.1000
v  0.1052 0.3156 0.0978
v  0.2104 0.3156 0.0978
v  -0.0000 0.4207 0.1000
v  -0.1052 0.4207 0.0978
v  0.1052 0.4207 0.0978
# 122 vertices

vn 0.0000 0.0000 -1.0000
vn -0.0027 0.0027 1.0000
vn 0.0000 -0.0000 1.0000
vn 0.0000 0.0027 1.0000
vn 0.0027 0.0027 1.0000
vn 0.0000 0.0054 1.0000
vn -0.0014 0.0014 1.0000
vn 0.0054 -0.0000 1.0000
vn 0.0014 -0.0014 1.0000
vn -0.0054 -0.0000 1.0000
vn -0.0000 -0.0027 1.0000
vn -0.0009 -0.0135 0.9999
vn -0.0004 -0.0131 0.9999
vn -0.0081 -0.0081 0.9999
vn 0.0041 -0.0122 0.9999
vn -0.0003 -0.0085 1.0000
vn -0.0077 -0.0094 0.9999
vn 0.0081 -0.0153 0.9998
vn 0.0027 -0.0027 1.0000
vn 0.0009 -0.0118 0.9999
vn 0.0004 -0.0121 0.9999
vn 0.0000 -0.0163 0.9999
vn -0.0033 -0.0020 1.0000
vn -0.0013 -0.0121 0.9999
vn 0.0017 -0.0126 0.9999
vn -0.0024 -0.0024 1.0000
vn 0.0014 -0.0094 1.0000
vn 0.0044 -0.0099 0.9999
vn 0.0010 -0.0003 1.0000
vn -0.0094 0.0140 0.9999
vn 0.0000 0.0163 0.9999
vn -0.0126 0.0126 0.9998
vn 0.0003 0.0003 1.0000
vn 0.0013 0.0013 1.0000
vn 0.0010 0.0044 1.0000
vn 0.0099 0.0081 0.9999
vn 0.0094 0.0094 0.9999
vn -0.0113 0.0121 0.9999
vn -0.0081 0.0094 0.9999
vn 0.0024 0.0024 1.0000
vn 0.0058 0.0071 1.0000
vn 0.0081 0.0099 0.9999
vn -0.0136 0.0081 0.9999
vn 0.0020 0.0020 1.0000
vn 0.0081 0.0081 0.9999
vn -0.0163 -0.0000 0.9999
vn 0.0163 -0.0000 0.9999
vn 0.0000 -1.0000 -0.0000
vn 1.0000 0.0000 -0.0000
vn 0.0000 1.0000 0.0000
vn -1.0000 0.0000 -0.0000
vn 1.0000 -0.0000 -0.0000
vn -1.0000 -0.0000 0.0000
# 53 vertex normals

g Box001
f 1//1 2//1 3//1 
f 3//1 4//1 1//1 
f 5//1 6//1 7//1 
f 7//1 8//1 5//1 
f 9//1 10//1 11//1 
f 11//1 2//1 9//1 
f 7//1 12//1 13//1 
f 13//1 14//1 7//1 
f 11//1 15//1 16//1 
f 16//1 17//1 11//1 
f 18//1 19//1 20//1 
f 20//1 21//1 18//1 
f 21//1 20//1 22//1 
f 22//1 23//1 21//1 
f 24//1 25//1 26//1 
f 26//1 12//1 24//1 
f 27//1 28//1 29//1 
f 29//1 15//1 27//1 
f 15//1 29//1 30//1 
f 30//1 16//1 15//1 
f 16//1 30//1 31//1 
f 31//1 19//1 16//1 
f 19//1 31//1 32//1 
f 32//1 20//1 19//1 
f 20//1 32//1 33//1 
f 33//1 22//1 20//1 
f 22//1 33//1 34//1 
f 34//1 25//1 22//1 
f 25//1 34//1 35//1 
f 35//1 26//1 25//1 
f 26//1 35//1 36//1 
f 36//1 37//1 26//1 
f 28//1 38//1 39//1 
f 39//1 29//1 28//1 
f 29//1 39//1 40//1 
f 40//1 30//1 29//1 
f 31//1 41//1 42//1 
f 42//1 32//1 31//1 
f 32//1 42//1 43//1 
f 43//1 33//1 32//1 
f 34//1 44//1 45//1 
f 45//1 35//1 34//1 
f 35//1 45//1 46//1 
f 46//1 36//1 35//1 
f 39//1 47//1 48//1 
f 48//1 40//1 39//1 
f 40//1 48//1 49//1 
f 49//1 41//1 40//1 
f 41//1 49//1 50//1 
f 50//1 42//1 41//1 
f 42//1 50//1 51//1 
f 51//1 43//1 42//1 
f 43//1 51//1 52//1 
f 52//1 44//1 43//1 
f 44//1 52//1 53//1 
f 53//1 45//1 44//1 
f 48//1 54//1 55//1 
f 55//1 49//1 48//1 
f 49//1 55//1 56//1 
f 56//1 50//1 49//1 
f 50//1 56//1 57//1 
f 57//1 51//1 50//1 
f 51//1 57//1 58//1 
f 58//1 52//1 51//1 
f 55//1 59//1 60//1 
f 60//1 56//1 55//1 
f 56//1 60//1 61//1 
f 61//1 57//1 56//1 
f 62//2 63//3 64//2 
f 64//2 65//4 62//2 
f 66//5 67//6 68//7 
f 68//7 69//8 66//5 
f 70//8 65//4 71//9 
f 71//9 72//8 70//8 
f 68//7 73//10 74//10 
f 74//10 75//11 68//7 
f 71//9 76//10 77//12 
f 77//12 78//13 71//9 
f 79//14 80//15 81//16 
f 81//16 82//17 79//14 
f 80//15 83//3 84//18 
f 84//18 81//16 80//15 
f 85//19 75//11 86//20 
f 86//20 87//21 85//19 
f 88//22 78//13 89//23 
f 89//23 90//3 88//22 
f 78//13 77//12 91//24 
f 91//24 89//23 78//13 
f 77//12 82//17 92//25 
f 92//25 91//24 77//12 
f 82//17 81//16 93//26 
f 93//26 92//25 82//17 
f 81//16 84//18 94//27 
f 94//27 93//26 81//16 
f 84//18 87//21 95//28 
f 95//28 94//27 84//18 
f 87//21 86//20 96//29 
f 96//29 95//28 87//21 
f 86//20 97//22 98//3 
f 98//3 96//29 86//20 
f 90//3 89//23 99//30 
f 99//30 100//31 90//3 
f 89//23 91//24 101//32 
f 101//32 99//30 89//23 
f 92//25 93//26 102//33 
f 102//33 103//34 92//25 
f 93//26 94//27 104//35 
f 104//35 102//33 93//26 
f 95//28 96//29 105//36 
f 105//36 106//37 95//28 
f 96//29 98//3 107//31 
f 107//31 105//36 96//29 
f 99//30 101//32 108//38 
f 108//38 109//3 99//30 
f 101//32 103//34 110//39 
f 110//39 108//38 101//32 
f 103//34 102//33 111//40 
f 111//40 110//39 103//34 
f 102//33 104//35 112//41 
f 112//41 111//40 102//33 
f 104//35 106//37 113//42 
f 113//42 112//41 104//35 
f 106//37 105//36 114//37 
f 114//37 113//42 106//37 
f 108//38 110//39 115//43 
f 115//43 116//3 108//38 
f 110//39 111//40 117//44 
f 117//44 115//43 110//39 
f 111//40 112//41 118//45 
f 118//45 117//44 111//40 
f 112//41 113//42 119//45 
f 119//45 118//45 112//41 
f 115//43 117//44 120//3 
f 120//3 121//46 115//43 
f 117//44 118//45 122//47 
f 122//47 120//3 117//44 
f 1//48 4//48 63//48 
f 63//48 62//48 1//48 
f 5//48 8//48 67//48 
f 67//48 66//48 5//48 
f 14//49 13//49 74//49 
f 74//49 73//49 14//49 
f 37//49 36//49 98//49 
f 98//49 97//49 37//49 
f 36//49 46//49 107//49 
f 107//49 98//49 36//49 
f 61//50 60//50 120//50 
f 120//50 122//50 61//50 
f 60//50 59//50 121//50 
f 121//50 120//50 60//50 
f 38//51 28//51 90//51 
f 90//51 100//51 38//51 
f 28//51 27//51 88//51 
f 88//51 90//51 28//51 
f 10//51 9//51 70//51 
f 70//51 72//51 10//51 
f 9//48 2//48 65//48 
f 65//48 70//48 9//48 
f 2//51 1//51 62//51 
f 62//51 65//51 2//51 
f 3//50 2//50 65//50 
f 65//50 64//50 3//50 
f 4//49 3//49 64//49 
f 64//49 63//49 4//49 
f 6//51 5//51 66//51 
f 66//51 69//51 6//51 
f 7//50 6//50 69//50 
f 69//50 68//50 7//50 
f 8//49 7//49 68//49 
f 68//52 67//52 8//52 
f 7//48 14//48 73//48 
f 73//48 68//48 7//48 
f 11//50 10//50 72//50 
f 72//50 71//50 11//50 
f 2//49 11//49 71//49 
f 71//49 65//49 2//49 
f 11//48 17//48 76//48 
f 76//48 71//48 11//48 
f 18//48 21//48 80//48 
f 80//48 79//48 18//48 
f 21//48 23//48 83//48 
f 83//48 80//48 21//48 
f 24//48 12//48 75//48 
f 75//48 85//48 24//48 
f 12//53 7//53 68//53 
f 68//53 75//53 12//53 
f 13//50 12//50 75//50 
f 75//50 74//50 13//50 
f 27//48 15//48 78//48 
f 78//48 88//48 27//48 
f 15//51 11//51 71//51 
f 71//51 78//51 15//51 
f 17//49 16//49 77//49 
f 77//49 76//49 17//49 
f 16//48 19//48 82//48 
f 82//48 77//48 16//48 
f 19//51 18//51 79//51 
f 79//51 82//51 19//51 
f 23//49 22//49 84//49 
f 84//49 83//49 23//49 
f 22//48 25//48 87//48 
f 87//48 84//48 22//48 
f 25//51 24//51 85//51 
f 85//51 87//51 25//51 
f 12//49 26//49 86//49 
f 86//49 75//49 12//49 
f 26//48 37//48 97//48 
f 97//48 86//48 26//48 
f 39//50 38//50 100//50 
f 100//50 99//50 39//50 
f 46//50 45//50 105//50 
f 105//50 107//50 46//50 
f 47//51 39//51 99//51 
f 99//51 109//51 47//51 
f 48//50 47//50 109//50 
f 109//50 108//50 48//50 
f 53//50 52//50 113//50 
f 113//50 114//50 53//50 
f 45//49 53//49 114//49 
f 114//49 105//49 45//49 
f 54//51 48//51 108//51 
f 108//51 116//51 54//51 
f 55//50 54//50 116//50 
f 116//50 115//50 55//50 
f 58//50 57//50 118//50 
f 118//50 119//50 58//50 
f 52//49 58//49 119//49 
f 119//49 113//49 52//49 
f 59//51 55//51 115//51 
f 115//51 121//51 59//51 
f 57//49 61//49 122//49 
f 122//49 118//49 57//49 
f 31//50 30//50 91//50 
f 91//50 92//50 31//50 
f 34//50 33//50 94//50 
f 94//50 95//50 34//50 
f 30//49 40//49 101//49 
f 101//49 91//49 30//49 
f 40//48 41//48 103//48 
f 103//48 101//48 40//48 
f 41//51 31//51 92//51 
f 92//51 103//51 41//51 
f 33//49 43//49 104//49 
f 104//49 94//49 33//49 
f 43//48 44//48 106//48 
f 106//48 104//48 43//48 
f 44//51 34//51 95//51 
f 95//51 106//51 44//51 
# 248 faces

