# 3ds Max Wavefront OBJ Exporter v0.97b - (c)2007 guruware
# File Created: 11.05.2014 13:09:03

#
# object Box001
#

v  -0.5554 -0.4440 -0.0000
v  -0.5554 -0.3330 -0.0000
v  -0.4443 -0.3330 -0.0000
v  -0.4443 -0.4440 -0.0000
v  0.4443 -0.4440 -0.0000
v  0.4443 -0.3330 -0.0000
v  0.5554 -0.3330 -0.0000
v  0.5554 -0.4440 -0.0000
v  -0.4443 -0.2220 -0.0000
v  -0.3332 -0.2220 -0.0000
v  -0.3332 -0.3330 -0.0000
v  0.3332 -0.3330 -0.0000
v  0.3332 -0.2220 -0.0000
v  0.4443 -0.2220 -0.0000
v  -0.5554 -0.2220 -0.0000
v  -0.5554 -0.1110 -0.0000
v  -0.4443 -0.1110 -0.0000
v  -0.3332 -0.1110 -0.0000
v  -0.2222 -0.1110 -0.0000
v  -0.2222 -0.2220 -0.0000
v  -0.1111 -0.1110 -0.0000
v  -0.1111 -0.2220 -0.0000
v  0.0000 -0.1110 -0.0000
v  0.0000 -0.2220 -0.0000
v  0.1111 -0.1110 -0.0000
v  0.1111 -0.2220 -0.0000
v  0.2222 -0.1110 -0.0000
v  0.2222 -0.2220 -0.0000
v  0.3332 -0.1110 -0.0000
v  0.4443 -0.1110 -0.0000
v  0.5554 -0.1110 -0.0000
v  0.5554 -0.2220 -0.0000
v  -0.6665 -0.1110 -0.0000
v  -0.6665 0.0000 -0.0000
v  -0.5554 0.0000 -0.0000
v  -0.4443 0.0000 -0.0000
v  -0.3332 0.0000 -0.0000
v  -0.2222 0.0000 -0.0000
v  -0.1111 0.0000 -0.0000
v  0.0000 0.0000 -0.0000
v  0.1111 0.0000 -0.0000
v  0.2222 0.0000 -0.0000
v  0.3332 0.0000 -0.0000
v  0.4443 0.0000 -0.0000
v  0.5554 0.0000 -0.0000
v  0.6665 0.0000 -0.0000
v  0.6665 -0.1110 -0.0000
v  -0.6665 0.1110 0.0000
v  -0.5554 0.1110 0.0000
v  -0.4443 0.1110 0.0000
v  -0.3332 0.1110 0.0000
v  -0.2222 0.1110 0.0000
v  -0.1111 0.1110 0.0000
v  0.0000 0.1110 0.0000
v  0.1111 0.1110 0.0000
v  0.2222 0.1110 0.0000
v  0.3332 0.1110 0.0000
v  0.4443 0.1110 0.0000
v  0.5554 0.1110 0.0000
v  0.6665 0.1110 0.0000
v  -0.6665 0.2220 0.0000
v  -0.5554 0.2220 0.0000
v  -0.4443 0.2220 0.0000
v  -0.3332 0.2220 0.0000
v  -0.2222 0.2220 0.0000
v  -0.1111 0.2220 0.0000
v  0.0000 0.2220 0.0000
v  0.1111 0.2220 0.0000
v  0.2222 0.2220 0.0000
v  0.3332 0.2220 0.0000
v  0.4443 0.2220 0.0000
v  0.5554 0.2220 0.0000
v  0.6665 0.2220 0.0000
v  -0.6665 0.3330 0.0000
v  -0.5554 0.3330 0.0000
v  -0.3332 0.3330 0.0000
v  -0.2222 0.3330 0.0000
v  0.2222 0.3330 0.0000
v  0.3332 0.3330 0.0000
v  0.5554 0.3330 0.0000
v  0.6665 0.3330 0.0000
v  -0.4443 0.3330 0.0000
v  -0.4443 0.4440 0.0000
v  -0.3332 0.4440 0.0000
v  0.3332 0.4440 0.0000
v  0.4443 0.4440 0.0000
v  0.4443 0.3330 0.0000
v  -0.5554 -0.4440 0.1011
v  -0.4443 -0.4440 0.1011
v  -0.4443 -0.3330 0.1015
v  -0.5554 -0.3330 0.1011
v  0.4443 -0.4440 0.1011
v  0.5554 -0.4440 0.1011
v  0.5554 -0.3330 0.1011
v  0.4443 -0.3330 0.1015
v  -0.3332 -0.3330 0.1011
v  -0.3332 -0.2220 0.1011
v  -0.4443 -0.2220 0.1011
v  0.3332 -0.3330 0.1011
v  0.4443 -0.2220 0.1011
v  0.3332 -0.2220 0.1011
v  -0.5554 -0.2220 0.1011
v  -0.4443 -0.1110 0.1000
v  -0.5554 -0.1110 0.1011
v  -0.3332 -0.1110 0.1000
v  -0.2222 -0.2220 0.1011
v  -0.2222 -0.1110 0.1000
v  -0.1111 -0.2220 0.1011
v  -0.1111 -0.1110 0.1000
v  0.0000 -0.2220 0.1011
v  0.0000 -0.1110 0.1000
v  0.1111 -0.2220 0.1011
v  0.1111 -0.1110 0.1000
v  0.2222 -0.2220 0.1011
v  0.2222 -0.1110 0.1000
v  0.3332 -0.1110 0.1000
v  0.4443 -0.1110 0.1000
v  0.5554 -0.2220 0.1011
v  0.5554 -0.1110 0.1011
v  -0.6665 -0.1110 0.1011
v  -0.5554 -0.0000 0.1000
v  -0.6665 -0.0000 0.1011
v  -0.4443 -0.0000 0.1000
v  -0.3332 -0.0000 0.1012
v  -0.2222 -0.0000 0.1012
v  -0.1111 -0.0000 0.1000
v  0.0000 -0.0000 0.1000
v  0.1111 -0.0000 0.1000
v  0.2222 -0.0000 0.1012
v  0.3332 -0.0000 0.1012
v  0.4443 -0.0000 0.1000
v  0.5554 -0.0000 0.1000
v  0.6665 -0.1110 0.1011
v  0.6665 -0.0000 0.1011
v  -0.5554 0.1110 0.1011
v  -0.6665 0.1110 0.1011
v  -0.4443 0.1110 0.1011
v  -0.3332 0.1110 0.1012
v  -0.1111 0.1110 0.1000
v  -0.2222 0.1110 0.1012
v  0.0000 0.1110 0.1000
v  0.1111 0.1110 0.1000
v  0.2222 0.1110 0.1012
v  0.4443 0.1110 0.1011
v  0.3332 0.1110 0.1012
v  0.5554 0.1110 0.1011
v  0.6665 0.1110 0.1011
v  -0.5554 0.2220 0.1011
v  -0.6665 0.2220 0.1011
v  -0.3332 0.2220 0.1011
v  -0.4443 0.2220 0.1011
v  -0.2222 0.2220 0.1011
v  -0.1111 0.2220 0.1011
v  0.0000 0.2220 0.1011
v  0.1111 0.2220 0.1011
v  0.2222 0.2220 0.1011
v  0.3332 0.2220 0.1011
v  0.4443 0.2220 0.1011
v  0.6665 0.2220 0.1011
v  0.5554 0.2220 0.1011
v  -0.5554 0.3330 0.1011
v  -0.6665 0.3330 0.1011
v  -0.2222 0.3330 0.1011
v  -0.3332 0.3330 0.1015
v  0.3332 0.3330 0.1015
v  0.2222 0.3330 0.1011
v  0.6665 0.3330 0.1011
v  0.5554 0.3330 0.1011
v  -0.4443 0.3330 0.1011
v  -0.3332 0.4440 0.1011
v  -0.4443 0.4440 0.1011
v  0.4443 0.3330 0.1011
v  0.4443 0.4440 0.1011
v  0.3332 0.4440 0.1011
# 174 vertices

vn 0.0000 0.0000 -1.0000
vn -0.0017 -0.0017 1.0000
vn 0.0000 -0.0034 1.0000
vn 0.0000 -0.0000 1.0000
vn -0.0034 -0.0000 1.0000
vn 0.0017 -0.0017 1.0000
vn 0.0034 -0.0000 1.0000
vn 0.0006 0.0073 1.0000
vn 0.0000 0.0079 1.0000
vn -0.0017 0.0017 1.0000
vn -0.0023 0.0056 1.0000
vn 0.0000 0.0068 1.0000
vn 0.0051 0.0051 1.0000
vn 0.0024 0.0024 1.0000
vn 0.0000 -0.0004 1.0000
vn 0.0000 0.0101 0.9999
vn 0.0014 0.0010 1.0000
vn 0.0000 0.0051 1.0000
vn -0.0014 0.0037 1.0000
vn -0.0038 0.0063 1.0000
vn -0.0068 0.0068 1.0000
vn 0.0038 -0.0013 1.0000
vn 0.0076 -0.0025 1.0000
vn -0.0029 -0.0025 1.0000
vn -0.0055 -0.0055 1.0000
vn 0.0073 -0.0073 0.9999
vn 0.0041 -0.0014 1.0000
vn -0.0055 -0.0000 1.0000
vn 0.0056 -0.0090 0.9999
vn 0.0041 -0.0064 1.0000
vn -0.0051 -0.0000 1.0000
vn -0.0076 0.0025 1.0000
vn 0.0017 -0.0051 1.0000
vn -0.0004 -0.0066 1.0000
vn -0.0022 -0.0012 1.0000
vn 0.0055 -0.0051 1.0000
vn 0.0055 -0.0013 1.0000
vn 0.0000 -0.0051 1.0000
vn -0.0041 -0.0037 1.0000
vn -0.0073 0.0005 1.0000
vn 0.0022 -0.0051 1.0000
vn 0.0004 0.0004 1.0000
vn 0.0000 -0.0068 1.0000
vn -0.0025 -0.0025 1.0000
vn 0.0004 -0.0002 1.0000
vn 0.0000 0.0005 1.0000
vn 0.0027 -0.0074 1.0000
vn 0.0000 -0.0101 0.9999
vn -0.0024 -0.0019 1.0000
vn 0.0000 -0.0006 1.0000
vn -0.0000 -0.0000 1.0000
vn 0.0017 0.0017 1.0000
vn 0.0000 0.0034 1.0000
vn -1.0000 0.0000 -0.0000
vn 0.0000 1.0000 0.0000
vn 1.0000 0.0000 -0.0000
vn 0.0000 -1.0000 -0.0000
vn 0.0000 -1.0000 0.0000
vn 0.0000 1.0000 -0.0000
# 59 vertex normals

g Box001
f 1//1 2//1 3//1 
f 3//1 4//1 1//1 
f 5//1 6//1 7//1 
f 7//1 8//1 5//1 
f 3//1 9//1 10//1 
f 10//1 11//1 3//1 
f 12//1 13//1 14//1 
f 14//1 6//1 12//1 
f 15//1 16//1 17//1 
f 17//1 9//1 15//1 
f 9//1 17//1 18//1 
f 18//1 10//1 9//1 
f 10//1 18//1 19//1 
f 19//1 20//1 10//1 
f 20//1 19//1 21//1 
f 21//1 22//1 20//1 
f 22//1 21//1 23//1 
f 23//1 24//1 22//1 
f 24//1 23//1 25//1 
f 25//1 26//1 24//1 
f 26//1 25//1 27//1 
f 27//1 28//1 26//1 
f 28//1 27//1 29//1 
f 29//1 13//1 28//1 
f 13//1 29//1 30//1 
f 30//1 14//1 13//1 
f 14//1 30//1 31//1 
f 31//1 32//1 14//1 
f 33//1 34//1 35//1 
f 35//1 16//1 33//1 
f 16//1 35//1 36//1 
f 36//1 17//1 16//1 
f 17//1 36//1 37//1 
f 37//1 18//1 17//1 
f 18//1 37//1 38//1 
f 38//1 19//1 18//1 
f 19//1 38//1 39//1 
f 39//1 21//1 19//1 
f 21//1 39//1 40//1 
f 40//1 23//1 21//1 
f 23//1 40//1 41//1 
f 41//1 25//1 23//1 
f 25//1 41//1 42//1 
f 42//1 27//1 25//1 
f 27//1 42//1 43//1 
f 43//1 29//1 27//1 
f 29//1 43//1 44//1 
f 44//1 30//1 29//1 
f 30//1 44//1 45//1 
f 45//1 31//1 30//1 
f 31//1 45//1 46//1 
f 46//1 47//1 31//1 
f 34//1 48//1 49//1 
f 49//1 35//1 34//1 
f 35//1 49//1 50//1 
f 50//1 36//1 35//1 
f 36//1 50//1 51//1 
f 51//1 37//1 36//1 
f 38//1 52//1 53//1 
f 53//1 39//1 38//1 
f 39//1 53//1 54//1 
f 54//1 40//1 39//1 
f 40//1 54//1 55//1 
f 55//1 41//1 40//1 
f 41//1 55//1 56//1 
f 56//1 42//1 41//1 
f 43//1 57//1 58//1 
f 58//1 44//1 43//1 
f 44//1 58//1 59//1 
f 59//1 45//1 44//1 
f 45//1 59//1 60//1 
f 60//1 46//1 45//1 
f 48//1 61//1 62//1 
f 62//1 49//1 48//1 
f 50//1 63//1 64//1 
f 64//1 51//1 50//1 
f 51//1 64//1 65//1 
f 65//1 52//1 51//1 
f 52//1 65//1 66//1 
f 66//1 53//1 52//1 
f 53//1 66//1 67//1 
f 67//1 54//1 53//1 
f 54//1 67//1 68//1 
f 68//1 55//1 54//1 
f 55//1 68//1 69//1 
f 69//1 56//1 55//1 
f 56//1 69//1 70//1 
f 70//1 57//1 56//1 
f 57//1 70//1 71//1 
f 71//1 58//1 57//1 
f 59//1 72//1 73//1 
f 73//1 60//1 59//1 
f 61//1 74//1 75//1 
f 75//1 62//1 61//1 
f 64//1 76//1 77//1 
f 77//1 65//1 64//1 
f 69//1 78//1 79//1 
f 79//1 70//1 69//1 
f 72//1 80//1 81//1 
f 81//1 73//1 72//1 
f 82//1 83//1 84//1 
f 84//1 76//1 82//1 
f 79//1 85//1 86//1 
f 86//1 87//1 79//1 
f 88//2 89//3 90//4 
f 90//4 91//5 88//2 
f 92//6 93//4 94//6 
f 94//6 95//4 92//6 
f 90//4 96//7 97//8 
f 97//8 98//9 90//4 
f 99//10 95//4 100//11 
f 100//11 101//12 99//10 
f 102//13 98//9 103//14 
f 103//14 104//13 102//13 
f 98//9 97//8 105//15 
f 105//15 103//14 98//9 
f 97//8 106//16 107//17 
f 107//17 105//15 97//8 
f 106//16 108//16 109//18 
f 109//18 107//17 106//16 
f 108//16 110//16 111//18 
f 111//18 109//18 108//16 
f 110//16 112//16 113//19 
f 113//19 111//18 110//16 
f 112//16 114//16 115//15 
f 115//15 113//19 112//16 
f 114//16 101//12 116//17 
f 116//17 115//15 114//16 
f 101//12 100//11 117//20 
f 117//20 116//17 101//12 
f 100//11 118//4 119//21 
f 119//21 117//20 100//11 
f 120//13 104//13 121//22 
f 121//22 122//23 120//13 
f 104//13 103//14 123//24 
f 123//24 121//22 104//13 
f 103//14 105//15 124//25 
f 124//25 123//24 103//14 
f 105//15 107//17 125//26 
f 125//26 124//25 105//15 
f 107//17 109//18 126//27 
f 126//27 125//26 107//17 
f 109//18 111//18 127//4 
f 127//4 126//27 109//18 
f 111//18 113//19 128//28 
f 128//28 127//4 111//18 
f 113//19 115//15 129//25 
f 129//25 128//28 113//19 
f 115//15 116//17 130//29 
f 130//29 129//25 115//15 
f 116//17 117//20 131//30 
f 131//30 130//29 116//17 
f 117//20 119//21 132//31 
f 132//31 131//30 117//20 
f 119//21 133//4 134//32 
f 134//32 132//31 119//21 
f 122//23 121//22 135//33 
f 135//33 136//4 122//23 
f 121//22 123//24 137//34 
f 137//34 135//33 121//22 
f 123//24 124//25 138//35 
f 138//35 137//34 123//24 
f 125//26 126//27 139//36 
f 139//36 140//37 125//26 
f 126//27 127//4 141//38 
f 141//38 139//36 126//27 
f 127//4 128//28 142//39 
f 142//39 141//38 127//4 
f 128//28 129//25 143//40 
f 143//40 142//39 128//28 
f 130//29 131//30 144//41 
f 144//41 145//42 130//29 
f 131//30 132//31 146//43 
f 146//43 144//41 131//30 
f 132//31 134//32 147//44 
f 147//44 146//43 132//31 
f 136//4 135//33 148//4 
f 148//4 149//4 136//4 
f 137//34 138//35 150//45 
f 150//45 151//4 137//34 
f 138//35 140//37 152//46 
f 152//46 150//45 138//35 
f 140//37 139//36 153//47 
f 153//47 152//46 140//37 
f 139//36 141//38 154//48 
f 154//48 153//47 139//36 
f 141//38 142//39 155//48 
f 155//48 154//48 141//38 
f 142//39 143//40 156//49 
f 156//49 155//48 142//39 
f 143//40 145//42 157//50 
f 157//50 156//49 143//40 
f 145//42 144//41 158//42 
f 158//42 157//50 145//42 
f 146//43 147//44 159//4 
f 159//4 160//4 146//43 
f 149//4 148//4 161//4 
f 161//4 162//4 149//4 
f 150//45 152//46 163//6 
f 163//6 164//51 150//45 
f 156//49 157//50 165//4 
f 165//4 166//5 156//49 
f 160//4 159//4 167//4 
f 167//4 168//4 160//4 
f 169//10 164//51 170//10 
f 170//10 171//4 169//10 
f 165//4 172//7 173//52 
f 173//52 174//53 165//4 
f 2//54 1//54 88//54 
f 88//54 91//54 2//54 
f 3//55 2//55 91//55 
f 91//55 90//55 3//55 
f 4//56 3//56 90//56 
f 90//56 89//56 4//56 
f 1//57 4//57 89//57 
f 89//57 88//57 1//57 
f 3//57 11//57 96//57 
f 96//57 90//57 3//57 
f 12//57 6//57 95//57 
f 95//57 99//57 12//57 
f 6//54 5//54 92//54 
f 92//54 95//54 6//54 
f 7//55 6//55 95//55 
f 95//55 94//55 7//55 
f 8//56 7//56 94//56 
f 94//56 93//56 8//56 
f 5//57 8//57 93//57 
f 93//57 92//57 5//57 
f 15//58 9//58 98//58 
f 98//58 102//58 15//58 
f 9//54 3//54 90//54 
f 90//54 98//54 9//54 
f 11//56 10//56 97//56 
f 97//56 96//56 11//56 
f 10//58 20//58 106//58 
f 106//58 97//58 10//58 
f 20//58 22//58 108//58 
f 108//58 106//58 20//58 
f 22//58 24//58 110//58 
f 110//58 108//58 22//58 
f 24//58 26//58 112//58 
f 112//58 110//58 24//58 
f 26//58 28//58 114//58 
f 114//58 112//58 26//58 
f 28//58 13//58 101//58 
f 101//58 114//58 28//58 
f 13//54 12//54 99//54 
f 99//54 101//54 13//54 
f 6//56 14//56 100//56 
f 100//56 95//56 6//56 
f 14//58 32//58 118//58 
f 118//58 100//58 14//58 
f 33//57 16//57 104//57 
f 104//57 120//57 33//57 
f 16//54 15//54 102//54 
f 102//54 104//54 16//54 
f 32//56 31//56 119//56 
f 119//56 118//56 32//56 
f 31//57 47//57 133//57 
f 133//57 119//57 31//57 
f 34//54 33//54 120//54 
f 120//54 122//54 34//54 
f 47//56 46//56 134//56 
f 134//56 133//56 47//56 
f 48//54 34//54 122//54 
f 122//54 136//54 48//54 
f 50//55 49//55 135//55 
f 135//55 137//55 50//55 
f 59//55 58//55 144//55 
f 144//55 146//55 59//55 
f 46//56 60//56 147//56 
f 147//56 134//56 46//56 
f 61//54 48//54 136//54 
f 136//54 149//54 61//54 
f 49//56 62//56 148//56 
f 148//56 135//56 49//56 
f 63//54 50//54 137//54 
f 137//54 151//54 63//54 
f 64//55 63//55 151//55 
f 151//55 150//55 64//55 
f 66//55 65//55 152//55 
f 152//55 153//55 66//55 
f 67//55 66//55 153//55 
f 153//55 154//55 67//55 
f 68//55 67//55 154//55 
f 154//55 155//55 68//55 
f 69//55 68//55 155//55 
f 155//55 156//55 69//55 
f 71//55 70//55 157//55 
f 157//55 158//55 71//55 
f 58//56 71//56 158//56 
f 158//56 144//56 58//56 
f 72//54 59//54 146//54 
f 146//54 160//54 72//54 
f 60//56 73//56 159//56 
f 159//56 147//56 60//56 
f 74//54 61//54 149//54 
f 149//54 162//54 74//54 
f 75//55 74//55 162//55 
f 162//55 161//55 75//55 
f 62//56 75//56 161//56 
f 161//56 148//56 62//56 
f 82//58 76//58 164//58 
f 164//57 169//57 82//57 
f 76//54 64//54 150//54 
f 150//54 164//54 76//54 
f 77//59 76//59 164//59 
f 164//55 163//55 77//55 
f 65//56 77//56 163//56 
f 163//56 152//56 65//56 
f 78//54 69//54 156//54 
f 156//54 166//54 78//54 
f 79//55 78//55 166//55 
f 166//55 165//55 79//55 
f 70//56 79//56 165//56 
f 165//56 157//56 70//56 
f 79//57 87//57 172//57 
f 172//57 165//57 79//57 
f 80//54 72//54 160//54 
f 160//54 168//54 80//54 
f 81//55 80//55 168//55 
f 168//55 167//55 81//55 
f 73//56 81//56 167//56 
f 167//56 159//56 73//56 
f 83//54 82//54 169//54 
f 169//54 171//54 83//54 
f 84//55 83//55 171//55 
f 171//55 170//55 84//55 
f 76//56 84//56 170//56 
f 170//56 164//56 76//56 
f 85//54 79//54 165//54 
f 165//54 174//54 85//54 
f 86//55 85//55 174//55 
f 174//55 173//55 86//55 
f 87//56 86//56 173//56 
f 173//56 172//56 87//56 
f 38//55 37//55 124//55 
f 124//55 125//55 38//55 
f 43//55 42//55 129//55 
f 129//55 130//55 43//55 
f 37//56 51//56 138//56 
f 138//56 124//56 37//56 
f 51//57 52//57 140//57 
f 140//57 138//57 51//57 
f 52//54 38//54 125//54 
f 125//54 140//54 52//54 
f 42//56 56//56 143//56 
f 143//56 129//56 42//56 
f 56//57 57//57 145//57 
f 145//57 143//57 56//57 
f 57//54 43//54 130//54 
f 130//54 145//54 57//54 
# 352 faces

