# 3ds Max Wavefront OBJ Exporter v0.97b - (c)2007 guruware
# File Created: 11.05.2014 13:36:01

#
# object Box001
#

v  -0.4440 -0.4440 -0.0000
v  -0.4440 -0.3330 -0.0000
v  -0.3330 -0.3330 -0.0000
v  -0.3330 -0.4440 -0.0000
v  -0.2220 -0.3330 -0.0000
v  -0.2220 -0.4440 -0.0000
v  0.2220 -0.4440 -0.0000
v  0.2220 -0.3330 -0.0000
v  0.3330 -0.3330 -0.0000
v  0.3330 -0.4440 -0.0000
v  0.4440 -0.3330 -0.0000
v  0.4440 -0.4440 -0.0000
v  -0.4440 -0.2220 -0.0000
v  -0.3330 -0.2220 -0.0000
v  -0.2220 -0.2220 -0.0000
v  -0.1110 -0.2220 -0.0000
v  -0.1110 -0.3330 -0.0000
v  0.1110 -0.3330 -0.0000
v  0.1110 -0.2220 -0.0000
v  0.2220 -0.2220 -0.0000
v  0.3330 -0.2220 -0.0000
v  0.4440 -0.2220 -0.0000
v  -0.4440 -0.1110 -0.0000
v  -0.3330 -0.1110 -0.0000
v  -0.2220 -0.1110 -0.0000
v  -0.1110 -0.1110 -0.0000
v  0.0000 -0.1110 -0.0000
v  0.0000 -0.2220 -0.0000
v  0.1110 -0.1110 -0.0000
v  0.2220 -0.1110 -0.0000
v  0.3330 -0.1110 -0.0000
v  0.4440 -0.1110 -0.0000
v  -0.4440 0.0000 -0.0000
v  -0.3330 0.0000 -0.0000
v  -0.2220 0.0000 -0.0000
v  -0.1110 0.0000 -0.0000
v  0.0000 0.0000 -0.0000
v  0.1110 0.0000 -0.0000
v  0.2220 0.0000 -0.0000
v  0.3330 0.0000 -0.0000
v  0.4440 0.0000 -0.0000
v  -0.3330 0.1110 0.0000
v  -0.2220 0.1110 0.0000
v  -0.1110 0.1110 0.0000
v  0.0000 0.1110 0.0000
v  0.1110 0.1110 0.0000
v  0.2220 0.1110 0.0000
v  0.3330 0.1110 0.0000
v  -0.2220 0.2220 0.0000
v  -0.1110 0.2220 0.0000
v  0.0000 0.2220 0.0000
v  0.1110 0.2220 0.0000
v  0.2220 0.2220 0.0000
v  -0.1110 0.3330 0.0000
v  0.0000 0.3330 0.0000
v  0.1110 0.3330 0.0000
v  -0.1110 0.4440 0.0000
v  0.0000 0.4440 0.0000
v  0.1110 0.4440 0.0000
v  -0.4440 -0.4440 0.1000
v  -0.3330 -0.4440 0.1000
v  -0.3330 -0.3330 0.1000
v  -0.4440 -0.3330 0.1000
v  -0.2220 -0.4440 0.1000
v  -0.2220 -0.3330 0.1000
v  0.2220 -0.4440 0.1000
v  0.3330 -0.4440 0.1000
v  0.3330 -0.3330 0.1000
v  0.2220 -0.3330 0.1000
v  0.4440 -0.4440 0.1000
v  0.4440 -0.3330 0.1000
v  -0.3330 -0.2220 0.1000
v  -0.4440 -0.2220 0.1000
v  -0.2220 -0.2220 0.1000
v  -0.1110 -0.3330 0.1000
v  -0.1110 -0.2220 0.1000
v  0.1110 -0.3330 0.1000
v  0.2220 -0.2220 0.1000
v  0.1110 -0.2220 0.1000
v  0.3330 -0.2220 0.1000
v  0.4440 -0.2220 0.1000
v  -0.3330 -0.1110 0.1000
v  -0.4440 -0.1110 0.1000
v  -0.2220 -0.1110 0.1000
v  -0.1110 -0.1110 0.1000
v  0.0000 -0.2220 0.1000
v  0.0000 -0.1110 0.1000
v  0.1110 -0.1110 0.1000
v  0.2220 -0.1110 0.1000
v  0.3330 -0.1110 0.1000
v  0.4440 -0.1110 0.1000
v  -0.3330 -0.0000 0.1000
v  -0.4440 -0.0000 0.1000
v  -0.2220 -0.0000 0.1000
v  -0.1110 -0.0000 0.1000
v  0.0000 -0.0000 0.1000
v  0.1110 -0.0000 0.1000
v  0.2220 -0.0000 0.1000
v  0.3330 -0.0000 0.1000
v  0.4440 -0.0000 0.1000
v  -0.2220 0.1110 0.1000
v  -0.3330 0.1110 0.1000
v  -0.1110 0.1110 0.1000
v  0.0000 0.1110 0.1000
v  0.1110 0.1110 0.1000
v  0.2220 0.1110 0.1000
v  0.3330 0.1110 0.1000
v  -0.1110 0.2220 0.1000
v  -0.2220 0.2220 0.1000
v  0.0000 0.2220 0.1000
v  0.1110 0.2220 0.1000
v  0.2220 0.2220 0.1000
v  0.0000 0.3330 0.1000
v  -0.1110 0.3330 0.1000
v  0.1110 0.3330 0.1000
v  0.0000 0.4440 0.1000
v  -0.1110 0.4440 0.1000
v  0.1110 0.4440 0.1000
# 118 vertices

vn 0.0000 0.0000 -1.0000
vn -0.0002 -0.0002 1.0000
vn 0.0001 -0.0003 1.0000
vn -0.0000 -0.0002 1.0000
vn -0.0004 -0.0000 1.0000
vn 0.0000 -0.0000 1.0000
vn 0.0003 -0.0003 1.0000
vn 0.0001 -0.0002 1.0000
vn 0.0003 -0.0001 1.0000
vn -0.0002 -0.0000 1.0000
vn 0.0002 -0.0002 1.0000
vn 0.0002 -0.0004 1.0000
vn 0.0002 -0.0001 1.0000
vn 0.0004 -0.0000 1.0000
vn -0.0003 0.0002 1.0000
vn -0.0003 0.0001 1.0000
vn 0.0000 -0.0004 1.0000
vn 0.0000 -0.0002 1.0000
vn 0.0002 0.0002 1.0000
vn -0.0003 0.0003 1.0000
vn -0.0002 0.0002 1.0000
vn 0.0001 0.0001 1.0000
vn -0.0004 0.0002 1.0000
vn -0.0001 0.0002 1.0000
vn -0.0001 0.0003 1.0000
vn -1.0000 0.0000 -0.0000
vn 0.0000 -1.0000 -0.0000
vn 1.0000 0.0000 -0.0000
vn 0.0000 1.0000 0.0000
# 29 vertex normals

g Box001
f 1//1 2//1 3//1 
f 3//1 4//1 1//1 
f 4//1 3//1 5//1 
f 5//1 6//1 4//1 
f 7//1 8//1 9//1 
f 9//1 10//1 7//1 
f 10//1 9//1 11//1 
f 11//1 12//1 10//1 
f 2//1 13//1 14//1 
f 14//1 3//1 2//1 
f 3//1 14//1 15//1 
f 15//1 5//1 3//1 
f 5//1 15//1 16//1 
f 16//1 17//1 5//1 
f 18//1 19//1 20//1 
f 20//1 8//1 18//1 
f 8//1 20//1 21//1 
f 21//1 9//1 8//1 
f 9//1 21//1 22//1 
f 22//1 11//1 9//1 
f 13//1 23//1 24//1 
f 24//1 14//1 13//1 
f 14//1 24//1 25//1 
f 25//1 15//1 14//1 
f 15//1 25//1 26//1 
f 26//1 16//1 15//1 
f 16//1 26//1 27//1 
f 27//1 28//1 16//1 
f 28//1 27//1 29//1 
f 29//1 19//1 28//1 
f 19//1 29//1 30//1 
f 30//1 20//1 19//1 
f 20//1 30//1 31//1 
f 31//1 21//1 20//1 
f 21//1 31//1 32//1 
f 32//1 22//1 21//1 
f 23//1 33//1 34//1 
f 34//1 24//1 23//1 
f 24//1 34//1 35//1 
f 35//1 25//1 24//1 
f 25//1 35//1 36//1 
f 36//1 26//1 25//1 
f 26//1 36//1 37//1 
f 37//1 27//1 26//1 
f 27//1 37//1 38//1 
f 38//1 29//1 27//1 
f 29//1 38//1 39//1 
f 39//1 30//1 29//1 
f 30//1 39//1 40//1 
f 40//1 31//1 30//1 
f 31//1 40//1 41//1 
f 41//1 32//1 31//1 
f 34//1 42//1 43//1 
f 43//1 35//1 34//1 
f 35//1 43//1 44//1 
f 44//1 36//1 35//1 
f 36//1 44//1 45//1 
f 45//1 37//1 36//1 
f 37//1 45//1 46//1 
f 46//1 38//1 37//1 
f 38//1 46//1 47//1 
f 47//1 39//1 38//1 
f 39//1 47//1 48//1 
f 48//1 40//1 39//1 
f 43//1 49//1 50//1 
f 50//1 44//1 43//1 
f 44//1 50//1 51//1 
f 51//1 45//1 44//1 
f 45//1 51//1 52//1 
f 52//1 46//1 45//1 
f 46//1 52//1 53//1 
f 53//1 47//1 46//1 
f 50//1 54//1 55//1 
f 55//1 51//1 50//1 
f 51//1 55//1 56//1 
f 56//1 52//1 51//1 
f 54//1 57//1 58//1 
f 58//1 55//1 54//1 
f 55//1 58//1 59//1 
f 59//1 56//1 55//1 
f 60//2 61//3 62//4 
f 62//4 63//5 60//2 
f 61//3 64//6 65//7 
f 65//7 62//4 61//3 
f 66//2 67//3 68//8 
f 68//8 69//2 66//2 
f 67//3 70//6 71//9 
f 71//9 68//8 67//3 
f 63//5 62//4 72//10 
f 72//10 73//5 63//5 
f 62//4 65//7 74//11 
f 74//11 72//10 62//4 
f 65//7 75//6 76//12 
f 76//12 74//11 65//7 
f 77//2 69//2 78//2 
f 78//2 79//2 77//2 
f 69//2 68//8 80//13 
f 80//13 78//2 69//2 
f 68//8 71//9 81//14 
f 81//14 80//13 68//8 
f 73//5 72//10 82//15 
f 82//15 83//16 73//5 
f 72//10 74//11 84//6 
f 84//6 82//15 72//10 
f 74//11 76//12 85//8 
f 85//8 84//6 74//11 
f 76//12 86//17 87//18 
f 87//18 85//8 76//12 
f 86//17 79//2 88//18 
f 88//18 87//18 86//17 
f 79//2 78//2 89//6 
f 89//6 88//18 79//2 
f 78//2 80//13 90//19 
f 90//19 89//6 78//2 
f 80//13 81//14 91//14 
f 91//14 90//19 80//13 
f 83//16 82//15 92//20 
f 92//20 93//6 83//16 
f 82//15 84//6 94//21 
f 94//21 92//20 82//15 
f 84//6 85//8 95//6 
f 95//6 94//21 84//6 
f 85//8 87//18 96//6 
f 96//6 95//6 85//8 
f 87//18 88//18 97//22 
f 97//22 96//6 87//18 
f 88//18 89//6 98//19 
f 98//19 97//22 88//18 
f 89//6 90//19 99//19 
f 99//19 98//19 89//6 
f 90//19 91//14 100//19 
f 100//19 99//19 90//19 
f 92//20 94//21 101//20 
f 101//20 102//6 92//20 
f 94//21 95//6 103//21 
f 103//21 101//20 94//21 
f 95//6 96//6 104//22 
f 104//22 103//21 95//6 
f 96//6 97//22 105//19 
f 105//19 104//22 96//6 
f 97//22 98//19 106//19 
f 106//19 105//19 97//22 
f 98//19 99//19 107//19 
f 107//19 106//19 98//19 
f 101//20 103//21 108//23 
f 108//23 109//6 101//20 
f 103//21 104//22 110//22 
f 110//22 108//23 103//21 
f 104//22 105//19 111//19 
f 111//19 110//22 104//22 
f 105//19 106//19 112//19 
f 112//19 111//19 105//19 
f 108//23 110//22 113//24 
f 113//24 114//16 108//23 
f 110//22 111//19 115//14 
f 115//14 113//24 110//22 
f 114//16 113//24 116//25 
f 116//25 117//6 114//16 
f 113//24 115//14 118//19 
f 118//19 116//25 113//24 
f 2//26 1//26 60//26 
f 60//26 63//26 2//26 
f 1//27 4//27 61//27 
f 61//27 60//27 1//27 
f 6//28 5//28 65//28 
f 65//28 64//28 6//28 
f 4//27 6//27 64//27 
f 64//27 61//27 4//27 
f 5//27 17//27 75//27 
f 75//27 65//27 5//27 
f 18//27 8//27 69//27 
f 69//27 77//27 18//27 
f 8//26 7//26 66//26 
f 66//26 69//26 8//26 
f 7//27 10//27 67//27 
f 67//27 66//27 7//27 
f 12//28 11//28 71//28 
f 71//28 70//28 12//28 
f 10//27 12//27 70//27 
f 70//27 67//27 10//27 
f 13//26 2//26 63//26 
f 63//26 73//26 13//26 
f 17//28 16//28 76//28 
f 76//28 75//28 17//28 
f 16//27 28//27 86//27 
f 86//27 76//27 16//27 
f 28//27 19//27 79//27 
f 79//27 86//27 28//27 
f 19//26 18//26 77//26 
f 77//26 79//26 19//26 
f 11//28 22//28 81//28 
f 81//28 71//28 11//28 
f 23//26 13//26 73//26 
f 73//26 83//26 23//26 
f 22//28 32//28 91//28 
f 91//28 81//28 22//28 
f 33//26 23//26 83//26 
f 83//26 93//26 33//26 
f 34//29 33//29 93//29 
f 93//29 92//29 34//29 
f 41//29 40//29 99//29 
f 99//29 100//29 41//29 
f 32//28 41//28 100//28 
f 100//28 91//28 32//28 
f 42//26 34//26 92//26 
f 92//26 102//26 42//26 
f 43//29 42//29 102//29 
f 102//29 101//29 43//29 
f 48//29 47//29 106//29 
f 106//29 107//29 48//29 
f 40//28 48//28 107//28 
f 107//28 99//28 40//28 
f 49//26 43//26 101//26 
f 101//26 109//26 49//26 
f 50//29 49//29 109//29 
f 109//29 108//29 50//29 
f 53//29 52//29 111//29 
f 111//29 112//29 53//29 
f 47//28 53//28 112//28 
f 112//28 106//28 47//28 
f 54//26 50//26 108//26 
f 108//26 114//26 54//26 
f 52//28 56//28 115//28 
f 115//28 111//28 52//28 
f 57//26 54//26 114//26 
f 114//26 117//26 57//26 
f 58//29 57//29 117//29 
f 117//29 116//29 58//29 
f 59//29 58//29 116//29 
f 116//29 118//29 59//29 
f 56//28 59//28 118//28 
f 118//28 115//28 56//28 
# 232 faces

