# 3ds Max Wavefront OBJ Exporter v0.97b - (c)2007 guruware
# File Created: 11.05.2014 13:31:19

#
# object Box001
#

v  -0.4440 -0.4440 -0.0000
v  -0.4440 -0.3330 -0.0000
v  -0.3330 -0.3330 -0.0000
v  -0.3330 -0.4440 -0.0000
v  -0.2220 -0.3330 -0.0000
v  -0.2220 -0.4440 -0.0000
v  0.2220 -0.4440 -0.0000
v  0.2220 -0.3330 -0.0000
v  0.3330 -0.3330 -0.0000
v  0.3330 -0.4440 -0.0000
v  0.4440 -0.3330 -0.0000
v  0.4440 -0.4440 -0.0000
v  -0.4440 -0.2220 -0.0000
v  -0.3330 -0.2220 -0.0000
v  -0.2220 -0.2220 -0.0000
v  -0.1110 -0.2220 -0.0000
v  -0.1110 -0.3330 -0.0000
v  0.1110 -0.3330 -0.0000
v  0.1110 -0.2220 -0.0000
v  0.2220 -0.2220 -0.0000
v  0.3330 -0.2220 -0.0000
v  0.4440 -0.2220 -0.0000
v  -0.4440 -0.1110 -0.0000
v  -0.3330 -0.1110 -0.0000
v  -0.2220 -0.1110 -0.0000
v  -0.1110 -0.1110 -0.0000
v  0.0000 -0.1110 -0.0000
v  0.0000 -0.2220 -0.0000
v  0.1110 -0.1110 -0.0000
v  0.2220 -0.1110 -0.0000
v  0.3330 -0.1110 -0.0000
v  0.4440 -0.1110 -0.0000
v  -0.4440 0.0000 -0.0000
v  -0.3330 0.0000 -0.0000
v  -0.2220 0.0000 -0.0000
v  -0.1110 0.0000 -0.0000
v  0.0000 0.0000 -0.0000
v  0.1110 0.0000 -0.0000
v  0.2220 0.0000 -0.0000
v  0.3330 0.0000 -0.0000
v  0.4440 0.0000 -0.0000
v  -0.3330 0.1110 0.0000
v  -0.2220 0.1110 0.0000
v  -0.1110 0.1110 0.0000
v  0.0000 0.1110 0.0000
v  0.1110 0.1110 0.0000
v  0.2220 0.1110 0.0000
v  0.3330 0.1110 0.0000
v  -0.2220 0.2220 0.0000
v  -0.1110 0.2220 0.0000
v  0.0000 0.2220 0.0000
v  0.1110 0.2220 0.0000
v  0.2220 0.2220 0.0000
v  -0.1110 0.3330 0.0000
v  0.0000 0.3330 0.0000
v  0.1110 0.3330 0.0000
v  -0.1110 0.4440 0.0000
v  0.0000 0.4440 0.0000
v  0.1110 0.4440 0.0000
v  -0.4440 -0.4440 0.1000
v  -0.3330 -0.4440 0.1000
v  -0.3330 -0.3330 0.1000
v  -0.4440 -0.3330 0.1000
v  -0.2220 -0.4440 0.1000
v  -0.2220 -0.3330 0.1000
v  0.2220 -0.4440 0.1000
v  0.3330 -0.4440 0.1000
v  0.3330 -0.3330 0.1000
v  0.2220 -0.3330 0.1000
v  0.4440 -0.4440 0.1000
v  0.4440 -0.3330 0.1000
v  -0.3330 -0.2220 0.1000
v  -0.4440 -0.2220 0.1000
v  -0.2220 -0.2220 0.1000
v  -0.1110 -0.3330 0.1000
v  -0.1110 -0.2220 0.1000
v  0.1110 -0.3330 0.1000
v  0.2220 -0.2220 0.1000
v  0.1110 -0.2220 0.1000
v  0.3330 -0.2220 0.1000
v  0.4440 -0.2220 0.1000
v  -0.3330 -0.1110 0.1000
v  -0.4440 -0.1110 0.1000
v  -0.2220 -0.1110 0.1000
v  -0.1110 -0.1110 0.1000
v  0.0000 -0.2220 0.1000
v  0.0000 -0.1110 0.1000
v  0.1110 -0.1110 0.1000
v  0.2220 -0.1110 0.1000
v  0.3330 -0.1110 0.1000
v  0.4440 -0.1110 0.1000
v  -0.3330 -0.0000 0.1000
v  -0.4440 -0.0000 0.1000
v  -0.2220 -0.0000 0.1000
v  -0.1110 -0.0000 0.1000
v  0.0000 -0.0000 0.1000
v  0.1110 -0.0000 0.1000
v  0.2220 -0.0000 0.1000
v  0.3330 -0.0000 0.1000
v  0.4440 -0.0000 0.1000
v  -0.2220 0.1110 0.1000
v  -0.3330 0.1110 0.1000
v  -0.1110 0.1110 0.1000
v  0.0000 0.1110 0.1000
v  0.1110 0.1110 0.1000
v  0.2220 0.1110 0.1000
v  0.3330 0.1110 0.1000
v  -0.1110 0.2220 0.1000
v  -0.2220 0.2220 0.1000
v  0.0000 0.2220 0.1000
v  0.1110 0.2220 0.1000
v  0.2220 0.2220 0.1000
v  0.0000 0.3330 0.1000
v  -0.1110 0.3330 0.1000
v  0.1110 0.3330 0.1000
v  0.0000 0.4440 0.1000
v  -0.1110 0.4440 0.1000
v  0.1110 0.4440 0.1000
# 118 vertices

vn 0.0000 0.0000 -1.0000
vn 0.0000 -0.0000 1.0000
vn 0.0000 -1.0000 -0.0000
vn 1.0000 0.0000 -0.0000
vn 0.0000 1.0000 0.0000
vn -1.0000 0.0000 -0.0000
# 6 vertex normals

g Box001
f 1//1 2//1 3//1 
f 3//1 4//1 1//1 
f 4//1 3//1 5//1 
f 5//1 6//1 4//1 
f 7//1 8//1 9//1 
f 9//1 10//1 7//1 
f 10//1 9//1 11//1 
f 11//1 12//1 10//1 
f 2//1 13//1 14//1 
f 14//1 3//1 2//1 
f 3//1 14//1 15//1 
f 15//1 5//1 3//1 
f 5//1 15//1 16//1 
f 16//1 17//1 5//1 
f 18//1 19//1 20//1 
f 20//1 8//1 18//1 
f 8//1 20//1 21//1 
f 21//1 9//1 8//1 
f 9//1 21//1 22//1 
f 22//1 11//1 9//1 
f 13//1 23//1 24//1 
f 24//1 14//1 13//1 
f 14//1 24//1 25//1 
f 25//1 15//1 14//1 
f 15//1 25//1 26//1 
f 26//1 16//1 15//1 
f 16//1 26//1 27//1 
f 27//1 28//1 16//1 
f 28//1 27//1 29//1 
f 29//1 19//1 28//1 
f 19//1 29//1 30//1 
f 30//1 20//1 19//1 
f 20//1 30//1 31//1 
f 31//1 21//1 20//1 
f 21//1 31//1 32//1 
f 32//1 22//1 21//1 
f 23//1 33//1 34//1 
f 34//1 24//1 23//1 
f 24//1 34//1 35//1 
f 35//1 25//1 24//1 
f 25//1 35//1 36//1 
f 36//1 26//1 25//1 
f 26//1 36//1 37//1 
f 37//1 27//1 26//1 
f 27//1 37//1 38//1 
f 38//1 29//1 27//1 
f 29//1 38//1 39//1 
f 39//1 30//1 29//1 
f 30//1 39//1 40//1 
f 40//1 31//1 30//1 
f 31//1 40//1 41//1 
f 41//1 32//1 31//1 
f 34//1 42//1 43//1 
f 43//1 35//1 34//1 
f 35//1 43//1 44//1 
f 44//1 36//1 35//1 
f 36//1 44//1 45//1 
f 45//1 37//1 36//1 
f 37//1 45//1 46//1 
f 46//1 38//1 37//1 
f 38//1 46//1 47//1 
f 47//1 39//1 38//1 
f 39//1 47//1 48//1 
f 48//1 40//1 39//1 
f 43//1 49//1 50//1 
f 50//1 44//1 43//1 
f 44//1 50//1 51//1 
f 51//1 45//1 44//1 
f 45//1 51//1 52//1 
f 52//1 46//1 45//1 
f 46//1 52//1 53//1 
f 53//1 47//1 46//1 
f 50//1 54//1 55//1 
f 55//1 51//1 50//1 
f 51//1 55//1 56//1 
f 56//1 52//1 51//1 
f 54//1 57//1 58//1 
f 58//1 55//1 54//1 
f 55//1 58//1 59//1 
f 59//1 56//1 55//1 
f 60//2 61//2 62//2 
f 62//2 63//2 60//2 
f 61//2 64//2 65//2 
f 65//2 62//2 61//2 
f 66//2 67//2 68//2 
f 68//2 69//2 66//2 
f 67//2 70//2 71//2 
f 71//2 68//2 67//2 
f 63//2 62//2 72//2 
f 72//2 73//2 63//2 
f 62//2 65//2 74//2 
f 74//2 72//2 62//2 
f 65//2 75//2 76//2 
f 76//2 74//2 65//2 
f 77//2 69//2 78//2 
f 78//2 79//2 77//2 
f 69//2 68//2 80//2 
f 80//2 78//2 69//2 
f 68//2 71//2 81//2 
f 81//2 80//2 68//2 
f 73//2 72//2 82//2 
f 82//2 83//2 73//2 
f 72//2 74//2 84//2 
f 84//2 82//2 72//2 
f 74//2 76//2 85//2 
f 85//2 84//2 74//2 
f 76//2 86//2 87//2 
f 87//2 85//2 76//2 
f 86//2 79//2 88//2 
f 88//2 87//2 86//2 
f 79//2 78//2 89//2 
f 89//2 88//2 79//2 
f 78//2 80//2 90//2 
f 90//2 89//2 78//2 
f 80//2 81//2 91//2 
f 91//2 90//2 80//2 
f 83//2 82//2 92//2 
f 92//2 93//2 83//2 
f 82//2 84//2 94//2 
f 94//2 92//2 82//2 
f 84//2 85//2 95//2 
f 95//2 94//2 84//2 
f 85//2 87//2 96//2 
f 96//2 95//2 85//2 
f 87//2 88//2 97//2 
f 97//2 96//2 87//2 
f 88//2 89//2 98//2 
f 98//2 97//2 88//2 
f 89//2 90//2 99//2 
f 99//2 98//2 89//2 
f 90//2 91//2 100//2 
f 100//2 99//2 90//2 
f 92//2 94//2 101//2 
f 101//2 102//2 92//2 
f 94//2 95//2 103//2 
f 103//2 101//2 94//2 
f 95//2 96//2 104//2 
f 104//2 103//2 95//2 
f 96//2 97//2 105//2 
f 105//2 104//2 96//2 
f 97//2 98//2 106//2 
f 106//2 105//2 97//2 
f 98//2 99//2 107//2 
f 107//2 106//2 98//2 
f 101//2 103//2 108//2 
f 108//2 109//2 101//2 
f 103//2 104//2 110//2 
f 110//2 108//2 103//2 
f 104//2 105//2 111//2 
f 111//2 110//2 104//2 
f 105//2 106//2 112//2 
f 112//2 111//2 105//2 
f 108//2 110//2 113//2 
f 113//2 114//2 108//2 
f 110//2 111//2 115//2 
f 115//2 113//2 110//2 
f 114//2 113//2 116//2 
f 116//2 117//2 114//2 
f 113//2 115//2 118//2 
f 118//2 116//2 113//2 
f 1//3 4//3 61//3 
f 61//3 60//3 1//3 
f 4//3 6//3 64//3 
f 64//3 61//3 4//3 
f 7//3 10//3 67//3 
f 67//3 66//3 7//3 
f 10//3 12//3 70//3 
f 70//3 67//3 10//3 
f 12//4 11//4 71//4 
f 71//4 70//4 12//4 
f 11//4 22//4 81//4 
f 81//4 71//4 11//4 
f 22//4 32//4 91//4 
f 91//4 81//4 22//4 
f 32//4 41//4 100//4 
f 100//4 91//4 32//4 
f 59//5 58//5 116//5 
f 116//5 118//5 59//5 
f 58//5 57//5 117//5 
f 117//5 116//5 58//5 
f 33//6 23//6 83//6 
f 83//6 93//6 33//6 
f 23//6 13//6 73//6 
f 73//6 83//6 23//6 
f 13//6 2//6 63//6 
f 63//6 73//6 13//6 
f 2//6 1//6 60//6 
f 60//6 63//6 2//6 
# 188 faces

